<svg xmlns="http://www.w3.org/2000/svg" xmlns:xlink="http://www.w3.org/1999/xlink" width="474" zoomAndPan="magnify" viewBox="0 0 355.5 98.999996" height="132" preserveAspectRatio="xMidYMid meet" version="1.0"><defs><g/><clipPath id="4011bbd3b6"><path d="M 170.703125 43.398438 L 224.628906 43.398438 L 224.628906 70.359375 L 170.703125 70.359375 Z M 170.703125 43.398438 " clip-rule="nonzero"/></clipPath></defs><g clip-path="url(#4011bbd3b6)"><path fill="#fe5d26" d="M 170.703125 70.316406 L 224.640625 70.316406 C 224.640625 69.433594 224.597656 68.550781 224.511719 67.671875 C 224.421875 66.792969 224.292969 65.921875 224.121094 65.054688 C 223.949219 64.1875 223.734375 63.332031 223.476562 62.488281 C 223.222656 61.644531 222.921875 60.8125 222.585938 59.996094 C 222.246094 59.183594 221.871094 58.382812 221.453125 57.605469 C 221.035156 56.828125 220.582031 56.070312 220.09375 55.335938 C 219.601562 54.601562 219.078125 53.894531 218.515625 53.210938 C 217.957031 52.53125 217.363281 51.875 216.738281 51.25 C 216.113281 50.628906 215.460938 50.035156 214.777344 49.476562 C 214.09375 48.914062 213.386719 48.390625 212.652344 47.898438 C 211.917969 47.410156 211.160156 46.957031 210.382812 46.539062 C 209.605469 46.121094 208.808594 45.746094 207.992188 45.40625 C 207.175781 45.070312 206.34375 44.773438 205.5 44.515625 C 204.65625 44.261719 203.800781 44.046875 202.933594 43.875 C 202.066406 43.703125 201.195312 43.574219 200.316406 43.484375 C 199.4375 43.398438 198.554688 43.355469 197.671875 43.355469 C 196.789062 43.355469 195.910156 43.398438 195.03125 43.484375 C 194.152344 43.574219 193.277344 43.703125 192.414062 43.875 C 191.546875 44.046875 190.691406 44.261719 189.847656 44.515625 C 189 44.773438 188.171875 45.070312 187.355469 45.40625 C 186.539062 45.746094 185.742188 46.121094 184.964844 46.539062 C 184.183594 46.957031 183.425781 47.410156 182.691406 47.898438 C 181.960938 48.390625 181.25 48.914062 180.566406 49.476562 C 179.886719 50.035156 179.230469 50.628906 178.605469 51.25 C 177.984375 51.875 177.390625 52.53125 176.828125 53.210938 C 176.269531 53.894531 175.742188 54.601562 175.253906 55.335938 C 174.761719 56.070312 174.308594 56.828125 173.890625 57.605469 C 173.476562 58.382812 173.097656 59.183594 172.761719 59.996094 C 172.421875 60.8125 172.125 61.644531 171.867188 62.488281 C 171.613281 63.332031 171.398438 64.1875 171.226562 65.054688 C 171.050781 65.921875 170.921875 66.792969 170.835938 67.671875 C 170.75 68.550781 170.707031 69.433594 170.703125 70.316406 Z M 170.703125 70.316406 " fill-opacity="1" fill-rule="nonzero"/></g><g fill="#efebdd" fill-opacity="1"><g transform="translate(16.158706, 70.16991)"><g><path d="M 15.824219 -32.761719 C 14.882812 -32.761719 14.046875 -32.484375 13.328125 -32.039062 C 12.605469 -31.539062 12.105469 -30.875 11.828125 -30.097656 L 1.832031 -3.332031 C 1.722656 -3 1.664062 -2.722656 1.664062 -2.386719 C 1.664062 -1.664062 1.886719 -1.109375 2.332031 -0.667969 C 2.777344 -0.222656 3.332031 0 4.054688 0 C 5.21875 0 5.996094 -0.5 6.386719 -1.5 L 8.664062 -7.71875 L 23.042969 -7.71875 L 25.320312 -1.5 C 25.652344 -0.5 26.429688 0 27.652344 0 C 28.320312 0 28.929688 -0.222656 29.375 -0.667969 C 29.820312 -1.109375 30.039062 -1.664062 30.039062 -2.386719 C 30.039062 -2.722656 29.984375 -3 29.875 -3.332031 L 19.878906 -30.097656 C 19.546875 -30.875 19.046875 -31.539062 18.324219 -32.039062 C 17.546875 -32.484375 16.714844 -32.761719 15.824219 -32.761719 Z M 10.382812 -12.273438 L 15.824219 -27.097656 L 21.324219 -12.273438 Z M 10.382812 -12.273438 "/></g></g></g><g fill="#efebdd" fill-opacity="1"><g transform="translate(47.865308, 70.16991)"><g><path d="M 5.996094 -17.992188 L 5.996094 -2.441406 C 5.996094 -1.777344 6.21875 -1.167969 6.664062 -0.722656 C 7.109375 -0.222656 7.71875 0 8.382812 0 C 9.050781 0 9.605469 -0.222656 10.105469 -0.722656 C 10.550781 -1.167969 10.828125 -1.777344 10.828125 -2.441406 L 10.828125 -17.992188 L 16.492188 -17.992188 C 17.101562 -17.992188 17.601562 -18.214844 18.046875 -18.65625 C 18.492188 -19.101562 18.714844 -19.601562 18.714844 -20.210938 C 18.714844 -20.824219 18.492188 -21.378906 18.046875 -21.824219 C 17.601562 -22.265625 17.101562 -22.488281 16.492188 -22.488281 L 10.828125 -22.488281 L 10.828125 -23.433594 C 10.828125 -25.320312 11.214844 -26.597656 12.105469 -27.375 C 12.9375 -28.152344 14.105469 -28.542969 15.660156 -28.542969 L 16.546875 -28.542969 C 17.101562 -28.542969 17.601562 -28.707031 18.046875 -29.152344 C 18.492188 -29.539062 18.714844 -30.039062 18.714844 -30.707031 C 18.714844 -31.261719 18.492188 -31.761719 18.101562 -32.207031 C 17.65625 -32.59375 17.160156 -32.816406 16.546875 -32.929688 C 16.101562 -32.984375 15.324219 -33.039062 14.105469 -33.039062 C 8.664062 -33.039062 5.996094 -29.652344 5.996094 -22.878906 L 5.996094 -22.488281 L 3.609375 -22.488281 C 2.941406 -22.488281 2.441406 -22.265625 2 -21.824219 C 1.554688 -21.378906 1.386719 -20.824219 1.386719 -20.210938 C 1.386719 -19.601562 1.554688 -19.101562 2 -18.65625 C 2.441406 -18.214844 2.941406 -17.992188 3.609375 -17.992188 Z M 5.996094 -17.992188 "/></g></g></g><g fill="#efebdd" fill-opacity="1"><g transform="translate(68.244161, 70.16991)"><g><path d="M 15.9375 -4.332031 L 14.492188 -4.332031 C 12.660156 -4.332031 11.4375 -4.554688 10.882812 -5.109375 C 10.273438 -5.609375 9.996094 -6.941406 9.996094 -9.050781 L 9.996094 -17.992188 L 15.992188 -17.992188 C 16.546875 -17.992188 16.992188 -18.15625 17.324219 -18.601562 C 17.65625 -19.046875 17.824219 -19.546875 17.824219 -20.210938 C 17.824219 -21.710938 17.214844 -22.488281 15.992188 -22.488281 L 9.996094 -22.488281 L 9.996094 -28.984375 C 9.996094 -29.539062 9.71875 -29.820312 9.21875 -29.820312 C 8.882812 -29.820312 8.496094 -29.539062 7.996094 -29.042969 L 1.832031 -21.824219 C 1.277344 -21.210938 1.054688 -20.65625 1.054688 -20.101562 C 1.054688 -19.492188 1.167969 -18.992188 1.5 -18.601562 C 1.777344 -18.15625 2.222656 -17.992188 2.832031 -17.992188 L 5.054688 -17.992188 L 5.054688 -8.882812 C 5.054688 -7.550781 5.109375 -6.441406 5.332031 -5.441406 C 5.554688 -4.441406 5.886719 -3.5 6.441406 -2.609375 C 6.996094 -1.722656 7.828125 -1 8.941406 -0.5 C 10.050781 0 11.4375 0.222656 13.105469 0.222656 L 15.9375 0.222656 C 16.492188 0.222656 16.992188 0 17.324219 -0.445312 C 17.65625 -0.886719 17.824219 -1.386719 17.824219 -2.054688 C 17.824219 -2.722656 17.65625 -3.21875 17.324219 -3.664062 C 16.992188 -4.109375 16.492188 -4.332031 15.9375 -4.332031 Z M 15.9375 -4.332031 "/></g></g></g><g fill="#efebdd" fill-opacity="1"><g transform="translate(88.289846, 70.16991)"><g><path d="M 19.433594 -4.609375 C 17.492188 -4.332031 16.160156 -4.21875 15.382812 -4.21875 C 12.550781 -4.21875 10.605469 -4.554688 9.550781 -5.332031 C 8.441406 -6.109375 7.71875 -7.386719 7.328125 -9.273438 L 19.601562 -9.273438 C 20.546875 -9.273438 21.378906 -9.605469 22.101562 -10.273438 C 22.765625 -10.9375 23.15625 -11.714844 23.15625 -12.660156 C 23.15625 -15.660156 22.265625 -18.101562 20.488281 -19.988281 C 18.714844 -21.878906 16.214844 -22.820312 12.882812 -22.820312 C 9.550781 -22.820312 6.941406 -21.710938 5.164062 -19.546875 C 3.386719 -17.378906 2.5 -14.605469 2.5 -11.273438 C 2.5 -7.828125 3.441406 -5.054688 5.332031 -2.886719 C 7.21875 -0.722656 9.996094 0.332031 13.714844 0.332031 C 15.9375 0.332031 17.992188 0.167969 19.824219 -0.277344 C 20.324219 -0.332031 20.765625 -0.554688 21.101562 -0.945312 C 21.433594 -1.332031 21.601562 -1.832031 21.601562 -2.386719 C 21.601562 -2.941406 21.378906 -3.5 20.933594 -3.941406 C 20.488281 -4.386719 19.988281 -4.609375 19.433594 -4.609375 Z M 18.378906 -13.4375 L 7.328125 -13.4375 C 7.664062 -15.105469 8.21875 -16.324219 9.105469 -17.101562 C 9.941406 -17.878906 11.160156 -18.269531 12.828125 -18.269531 C 14.382812 -18.269531 15.660156 -17.878906 16.546875 -17.214844 C 17.4375 -16.492188 18.046875 -15.214844 18.378906 -13.4375 Z M 18.378906 -13.4375 "/></g></g></g><g fill="#efebdd" fill-opacity="1"><g transform="translate(114.22151, 70.16991)"><g><path d="M 15.214844 -18.269531 L 16.101562 -18.269531 C 16.660156 -18.269531 17.101562 -18.433594 17.4375 -18.878906 C 17.769531 -19.324219 17.9375 -19.824219 17.9375 -20.488281 C 17.9375 -22.042969 17.324219 -22.820312 16.101562 -22.820312 L 15.492188 -22.820312 C 11.9375 -22.820312 9.550781 -21.765625 8.273438 -19.769531 C 8.105469 -20.488281 7.773438 -21.101562 7.328125 -21.65625 C 6.886719 -22.210938 6.332031 -22.488281 5.71875 -22.488281 C 5.054688 -22.488281 4.441406 -22.210938 3.996094 -21.765625 C 3.554688 -21.265625 3.332031 -20.710938 3.332031 -20.046875 L 3.332031 -2.441406 C 3.332031 -1.777344 3.554688 -1.167969 3.996094 -0.722656 C 4.441406 -0.222656 5.054688 0 5.71875 0 C 6.386719 0 6.941406 -0.222656 7.441406 -0.722656 C 7.886719 -1.167969 8.164062 -1.777344 8.164062 -2.441406 L 8.164062 -12.773438 L 8.21875 -13.328125 C 8.21875 -13.660156 8.382812 -14.160156 8.664062 -14.714844 C 8.941406 -15.269531 9.328125 -15.769531 9.773438 -16.324219 C 10.21875 -16.878906 10.9375 -17.324219 11.882812 -17.714844 C 12.828125 -18.046875 13.9375 -18.269531 15.214844 -18.269531 Z M 15.214844 -18.269531 "/></g></g></g><g fill="#efebdd" fill-opacity="1"><g transform="translate(132.157117, 70.16991)"><g><path d="M 3.332031 -20.046875 L 3.332031 -2.441406 C 3.332031 -1.777344 3.554688 -1.167969 3.996094 -0.722656 C 4.441406 -0.222656 5.054688 0 5.71875 0 C 6.386719 0 6.941406 -0.222656 7.441406 -0.722656 C 7.886719 -1.167969 8.164062 -1.777344 8.164062 -2.441406 L 8.164062 -14.160156 L 8.382812 -14.546875 C 8.496094 -14.824219 8.773438 -15.160156 9.105469 -15.601562 C 9.441406 -15.992188 9.882812 -16.378906 10.328125 -16.824219 C 10.773438 -17.214844 11.382812 -17.546875 12.105469 -17.824219 C 12.828125 -18.101562 13.605469 -18.269531 14.4375 -18.269531 C 15.601562 -18.269531 16.660156 -17.878906 17.601562 -17.214844 C 18.492188 -16.546875 18.992188 -15.4375 18.992188 -13.9375 L 18.992188 -2.441406 C 18.992188 -1.777344 19.210938 -1.167969 19.65625 -0.722656 C 20.101562 -0.222656 20.710938 0 21.378906 0 C 22.042969 0 22.601562 -0.222656 23.101562 -0.722656 C 23.542969 -1.167969 23.820312 -1.777344 23.820312 -2.441406 L 23.820312 -14.546875 C 23.820312 -16.769531 22.988281 -18.714844 21.378906 -20.378906 C 19.710938 -21.988281 17.9375 -22.820312 15.992188 -22.820312 C 12.660156 -22.820312 10.050781 -21.824219 8.164062 -19.933594 C 7.828125 -21.601562 6.996094 -22.488281 5.71875 -22.488281 C 5.054688 -22.488281 4.441406 -22.210938 3.996094 -21.765625 C 3.554688 -21.265625 3.332031 -20.710938 3.332031 -20.046875 Z M 3.332031 -20.046875 "/></g></g></g><g fill="#efebdd" fill-opacity="1"><g transform="translate(159.032772, 70.16991)"><g><path d="M 13.660156 0.332031 C 14.546875 0.332031 15.492188 0.277344 16.4375 0.0546875 C 17.378906 -0.167969 18.378906 -0.554688 19.378906 -1.109375 C 20.378906 -1.664062 21.324219 -2.332031 22.101562 -3.21875 C 22.878906 -4.054688 23.488281 -5.164062 24.042969 -6.609375 C 24.542969 -8.050781 24.820312 -9.660156 24.820312 -11.496094 C 24.820312 -15.160156 23.65625 -17.9375 21.324219 -19.878906 C 18.992188 -21.824219 16.4375 -22.820312 13.660156 -22.820312 C 10.828125 -22.820312 8.273438 -21.824219 5.941406 -19.878906 C 3.609375 -17.9375 2.5 -15.160156 2.5 -11.496094 C 2.5 -9.660156 2.722656 -8.050781 3.277344 -6.609375 C 3.777344 -5.164062 4.441406 -4.054688 5.21875 -3.21875 C 5.996094 -2.332031 6.886719 -1.664062 7.886719 -1.109375 C 8.882812 -0.554688 9.882812 -0.167969 10.828125 0.0546875 C 11.773438 0.277344 12.714844 0.332031 13.660156 0.332031 Z M 13.660156 -4.21875 C 9.441406 -4.21875 7.328125 -6.609375 7.328125 -11.382812 C 7.328125 -13.769531 7.941406 -15.492188 9.21875 -16.601562 C 10.496094 -17.714844 11.992188 -18.269531 13.660156 -18.269531 C 15.324219 -18.269531 16.769531 -17.714844 18.046875 -16.601562 C 19.324219 -15.492188 19.988281 -13.769531 19.988281 -11.382812 C 19.988281 -6.609375 17.878906 -4.21875 13.660156 -4.21875 Z M 13.660156 -4.21875 "/></g></g></g><g fill="#efebdd" fill-opacity="1"><g transform="translate(186.353276, 70.16991)"><g/></g></g><g fill="#efebdd" fill-opacity="1"><g transform="translate(197.403386, 70.16991)"><g/></g></g><g fill="#efebdd" fill-opacity="1"><g transform="translate(208.462297, 70.16991)"><g><path d="M 3.332031 -20.046875 L 3.332031 -2.441406 C 3.332031 -1.777344 3.554688 -1.167969 3.996094 -0.722656 C 4.441406 -0.222656 5.054688 0 5.71875 0 C 6.386719 0 6.941406 -0.222656 7.441406 -0.722656 C 7.886719 -1.167969 8.164062 -1.777344 8.164062 -2.441406 L 8.164062 -14.160156 L 8.382812 -14.546875 C 8.496094 -14.824219 8.773438 -15.160156 9.105469 -15.601562 C 9.441406 -15.992188 9.882812 -16.378906 10.328125 -16.824219 C 10.773438 -17.214844 11.382812 -17.546875 12.105469 -17.824219 C 12.828125 -18.101562 13.605469 -18.269531 14.4375 -18.269531 C 15.601562 -18.269531 16.660156 -17.878906 17.601562 -17.214844 C 18.492188 -16.546875 18.992188 -15.4375 18.992188 -13.9375 L 18.992188 -2.441406 C 18.992188 -1.777344 19.210938 -1.167969 19.65625 -0.722656 C 20.101562 -0.222656 20.710938 0 21.378906 0 C 22.042969 0 22.601562 -0.222656 23.101562 -0.722656 C 23.542969 -1.167969 23.820312 -1.777344 23.820312 -2.441406 L 23.820312 -14.546875 C 23.820312 -16.769531 22.988281 -18.714844 21.378906 -20.378906 C 19.710938 -21.988281 17.9375 -22.820312 15.992188 -22.820312 C 12.660156 -22.820312 10.050781 -21.824219 8.164062 -19.933594 C 7.828125 -21.601562 6.996094 -22.488281 5.71875 -22.488281 C 5.054688 -22.488281 4.441406 -22.210938 3.996094 -21.765625 C 3.554688 -21.265625 3.332031 -20.710938 3.332031 -20.046875 Z M 3.332031 -20.046875 "/></g></g></g><g fill="#efebdd" fill-opacity="1"><g transform="translate(235.337951, 70.16991)"><g/></g></g><g fill="#efebdd" fill-opacity="1"><g transform="translate(246.388061, 70.16991)"><g><path d="M 12.160156 -28.207031 L 12.160156 -2.441406 C 12.160156 -1.777344 12.382812 -1.167969 12.828125 -0.722656 C 13.269531 -0.222656 13.882812 0 14.546875 0 C 15.214844 0 15.769531 -0.222656 16.269531 -0.722656 C 16.714844 -1.167969 16.992188 -1.777344 16.992188 -2.441406 L 16.992188 -28.207031 L 24.65625 -28.207031 C 25.265625 -28.207031 25.820312 -28.429688 26.265625 -28.875 C 26.710938 -29.320312 26.929688 -29.820312 26.929688 -30.484375 C 26.929688 -31.097656 26.710938 -31.652344 26.265625 -32.09375 C 25.820312 -32.539062 25.265625 -32.761719 24.65625 -32.761719 L 4.496094 -32.761719 C 3.832031 -32.761719 3.332031 -32.539062 2.886719 -32.09375 C 2.441406 -31.652344 2.222656 -31.097656 2.222656 -30.484375 C 2.222656 -29.820312 2.441406 -29.320312 2.886719 -28.875 C 3.332031 -28.429688 3.832031 -28.207031 4.496094 -28.207031 Z M 12.160156 -28.207031 "/></g></g></g><g fill="#efebdd" fill-opacity="1"><g transform="translate(275.540363, 70.16991)"><g><path d="M 3.71875 -28.375 C 3.71875 -27.707031 3.941406 -27.207031 4.386719 -26.765625 C 4.832031 -26.320312 5.332031 -26.097656 5.996094 -26.097656 C 6.609375 -26.097656 7.164062 -26.320312 7.605469 -26.765625 C 8.050781 -27.207031 8.328125 -27.707031 8.328125 -28.375 C 8.328125 -28.984375 8.050781 -29.539062 7.605469 -29.984375 C 7.164062 -30.429688 6.609375 -30.707031 5.996094 -30.707031 C 5.332031 -30.707031 4.832031 -30.429688 4.386719 -29.984375 C 3.941406 -29.539062 3.71875 -28.984375 3.71875 -28.375 Z M 3.609375 -20.046875 L 3.609375 -2.441406 C 3.609375 -1.777344 3.832031 -1.167969 4.277344 -0.722656 C 4.71875 -0.222656 5.332031 0 5.996094 0 C 6.664062 0 7.21875 -0.222656 7.71875 -0.722656 C 8.164062 -1.167969 8.441406 -1.777344 8.441406 -2.441406 L 8.441406 -20.046875 C 8.441406 -20.710938 8.164062 -21.265625 7.71875 -21.765625 C 7.21875 -22.210938 6.664062 -22.488281 5.996094 -22.488281 C 5.332031 -22.488281 4.71875 -22.210938 4.277344 -21.765625 C 3.832031 -21.265625 3.609375 -20.710938 3.609375 -20.046875 Z M 3.609375 -20.046875 "/></g></g></g><g fill="#efebdd" fill-opacity="1"><g transform="translate(287.589976, 70.16991)"><g><path d="M 3.332031 -20.046875 L 3.332031 8.382812 C 3.332031 9.050781 3.554688 9.660156 3.996094 10.105469 C 4.441406 10.605469 5.054688 10.828125 5.71875 10.828125 C 6.386719 10.828125 6.941406 10.605469 7.441406 10.105469 C 7.886719 9.660156 8.164062 9.050781 8.164062 8.382812 L 8.164062 -2.5 C 9.828125 -0.609375 12.273438 0.332031 15.382812 0.332031 C 17.9375 0.332031 20.210938 -0.609375 22.210938 -2.5 C 24.210938 -4.386719 25.210938 -7.386719 25.210938 -11.605469 C 25.210938 -15.269531 24.15625 -18.046875 22.15625 -19.933594 C 20.15625 -21.824219 17.714844 -22.820312 14.9375 -22.820312 C 11.9375 -22.820312 9.71875 -21.878906 8.164062 -19.988281 C 7.828125 -21.65625 6.996094 -22.488281 5.71875 -22.488281 C 5.054688 -22.488281 4.441406 -22.210938 3.996094 -21.765625 C 3.554688 -21.265625 3.332031 -20.710938 3.332031 -20.046875 Z M 8.273438 -8.664062 L 8.273438 -13.828125 L 8.773438 -14.9375 C 9.105469 -15.660156 9.71875 -16.378906 10.71875 -17.160156 C 11.660156 -17.878906 12.773438 -18.269531 14.105469 -18.269531 C 14.660156 -18.269531 15.269531 -18.15625 15.882812 -18.046875 C 16.4375 -17.9375 17.101562 -17.65625 17.878906 -17.269531 C 18.601562 -16.824219 19.210938 -16.160156 19.65625 -15.160156 C 20.101562 -14.160156 20.378906 -12.992188 20.378906 -11.605469 C 20.378906 -10.160156 20.15625 -8.996094 19.824219 -7.996094 C 19.492188 -6.996094 19.101562 -6.21875 18.714844 -5.773438 C 18.269531 -5.332031 17.714844 -4.941406 17.046875 -4.71875 C 16.324219 -4.441406 15.769531 -4.277344 15.4375 -4.277344 C 15.105469 -4.21875 14.660156 -4.21875 14.105469 -4.21875 C 13.269531 -4.21875 12.492188 -4.332031 11.828125 -4.664062 C 11.105469 -4.996094 10.550781 -5.332031 10.160156 -5.71875 C 9.71875 -6.109375 9.382812 -6.550781 9.050781 -7.109375 C 8.71875 -7.605469 8.550781 -7.941406 8.441406 -8.164062 C 8.328125 -8.382812 8.273438 -8.550781 8.273438 -8.664062 Z M 8.273438 -8.664062 "/></g></g><g transform="translate(315.298551, 70.16991)"><g><path d="M 17.324219 -22.15625 C 15.546875 -22.601562 13.660156 -22.820312 11.714844 -22.820312 C 9.164062 -22.820312 6.941406 -22.210938 5.054688 -21.046875 C 3.164062 -19.824219 2.222656 -18.15625 2.222656 -15.992188 C 2.222656 -14.382812 2.941406 -12.992188 4.441406 -11.882812 C 5.886719 -10.773438 7.550781 -9.941406 9.328125 -9.496094 C 11.105469 -9.050781 12.714844 -8.496094 14.214844 -7.941406 C 15.660156 -7.386719 16.4375 -6.773438 16.4375 -6.164062 C 16.4375 -4.832031 14.714844 -4.21875 11.328125 -4.21875 C 9.605469 -4.21875 7.664062 -4.609375 5.441406 -5.386719 C 4.832031 -5.386719 4.332031 -5.164062 3.886719 -4.71875 C 3.441406 -4.277344 3.21875 -3.71875 3.21875 -3.164062 C 3.21875 -2.277344 3.777344 -1.554688 4.886719 -1 C 6.886719 -0.109375 9.164062 0.332031 11.605469 0.332031 C 14.714844 0.332031 17.101562 -0.222656 18.769531 -1.386719 C 20.433594 -2.554688 21.265625 -4.21875 21.265625 -6.441406 C 21.265625 -7.886719 20.488281 -9.105469 19.046875 -10.21875 C 17.546875 -11.328125 15.9375 -12.105469 14.160156 -12.605469 C 12.382812 -13.105469 10.71875 -13.660156 9.273438 -14.214844 C 7.773438 -14.769531 7.050781 -15.382812 7.050781 -15.9375 C 7.050781 -16.714844 7.496094 -17.324219 8.382812 -17.714844 C 9.273438 -18.046875 10.773438 -18.269531 12.773438 -18.269531 C 13.214844 -18.269531 14.492188 -18.101562 16.601562 -17.878906 C 17.214844 -17.878906 17.714844 -18.101562 18.15625 -18.546875 C 18.601562 -18.992188 18.824219 -19.492188 18.824219 -20.101562 C 18.824219 -21.15625 18.324219 -21.824219 17.324219 -22.15625 Z M 17.324219 -22.15625 "/></g></g></g></svg>